<?xml version="1.0" ?>
<!-- Uploaded to: SVG Repo, www.svgrepo.com, Generator: SVG Repo Mixer Tools -->
<svg fill="#000000" width="800px" height="800px" viewBox="0 0 100 100" version="1.1" xml:space="preserve" xmlns="http://www.w3.org/2000/svg" xmlns:xlink="http://www.w3.org/1999/xlink">
<style type="text/css">
	.st0{display:none;}
	.st1{display:inline;fill:none;}
</style>
<g class="st0" id="bounding_squares">
<rect class="st1" height="100" id="XMLID_23_" width="100"/>
</g>
<g id="icons">
<path d="M47.8145142,26.2363892C52.0826416,24.5957031,55.125,20.4641113,55.125,15.625   c0-6.2724609-5.1025391-11.375-11.375-11.375S32.375,9.3525391,32.375,15.625c0,4.894043,3.1123047,9.0634766,7.4569702,10.6651001   C39.1223145,26.5973511,38.625,27.3025513,38.625,28.125v18.75c0,0.9804688,0.7109375,1.8173828,1.6796875,1.9746094   C40.4121094,48.8662109,40.5195313,48.875,40.6259766,48.875c0.8486328,0,1.6210938-0.5410156,1.8964844-1.3671875   L44.875,40.4501953v6.1005859l-6.1474609,18.4414063c-0.3496094,1.0478516,0.2167969,2.1806641,1.2646484,2.5302734   c0.2099609,0.0703125,0.4238281,0.1035156,0.6328125,0.1035156c0.8378906,0,1.6181641-0.5302734,1.8974609-1.3681641l6.25-18.75   C48.8408203,47.3037109,48.875,47.0898438,48.875,46.875V34.1444702c1.4689941,2.7597046,2.25,5.854187,2.25,9.069397v12.7109375   l-6.1474609,18.4423828c-0.1367188,0.4111328-0.1367188,0.8544922,0,1.265625L50.3505859,91.75H46.875   c-1.1044922,0-2,0.8955078-2,2s0.8955078,2,2,2h6.25c0.6425781,0,1.2460938-0.3085938,1.6220703-0.8310547   c0.3759766-0.5214844,0.4785156-1.1914063,0.2753906-1.8017578L48.9833984,75l6.0390625-18.1171875   c0.012207-0.0366211,0.0148926-0.0737305,0.0249023-0.1105347c0.0180054-0.0661011,0.0340576-0.1322021,0.0452271-0.2009277   c0.0117798-0.0717163,0.0177612-0.1426392,0.0216064-0.2141113C55.1161499,56.3209839,55.125,56.2867432,55.125,56.25V43.2138672   c0-6.234375-2.4277344-12.0947266-6.8359375-16.5029297L47.8145142,26.2363892z M36.375,15.625   c0-4.0664063,3.3085938-7.375,7.375-7.375s7.375,3.3085938,7.375,7.375S47.8164063,23,43.75,23S36.375,19.6914063,36.375,15.625z    M42.1773071,26.8782349c0.2317505,0.0322876,0.4644165,0.0595703,0.7003784,0.0775757l1.7090454,1.7090454L42.625,34.5507813   V28.125C42.625,27.6508179,42.453064,27.2210693,42.1773071,26.8782349z"/>
</g>
</svg>